<svg xmlns="http://www.w3.org/2000/svg" width="512" height="512" viewBox="0 0 512 512">
  <rect width="512" height="512" rx="112" fill="#111111"/>
  <path d="M104 176 L152 336 L200 224 L248 336 L296 176" fill="none" stroke="#FFFFFF" stroke-width="26" stroke-linecap="round" stroke-linejoin="round"/>
  <g fill="#D3A13B">
    <path d="M372 150 c8 26 14 32 40 40 c-26 8 -32 14 -40 40 c-8 -26 -14 -32 -40 -40 c26 -8 32 -14 40 -40 Z"/>
    <path d="M420 236 c5 16 9 20 25 25 c-16 5 -20 9 -25 25 c-5 -16 -9 -20 -25 -25 c16 -5 20 -9 25 -25 Z"/>
  </g>
</svg>
