<svg width="1363" height="1363" viewBox="0 0 1363 1363" fill="none" xmlns="http://www.w3.org/2000/svg">
<rect width="1363" height="1363" rx="200" fill="#2C1E16"/>
<path d="M291.42 465.554H255.306L195.48 605.632H236.701C301.269 605.632 342.49 577.179 349.421 528.297C354.893 490.724 336.654 465.554 291.42 465.554ZM374.592 529.756C369.849 567.694 333.37 608.551 235.972 608.551H194.386L157.542 695.37C149.882 713.245 152.8 719.082 169.58 719.082V722H106.107V719.082C121.793 719.082 126.9 715.799 132.737 702.301L223.204 489.265C230.865 471.39 227.946 465.554 211.166 465.554V462.635H298.351C341.031 462.635 381.887 474.673 374.592 529.756ZM345.981 722H325.918L376.624 602.714C384.284 584.839 381.366 579.003 364.586 579.003V576.084H409.819L362.032 684.792C376.988 657.432 397.417 626.061 412.008 607.092C429.518 584.475 443.015 575.355 459.431 575.355C464.902 575.355 469.645 576.449 473.293 578.638L457.607 615.482H454.688C456.877 603.079 452.135 594.689 442.286 594.689C431.342 594.689 418.209 604.903 402.159 627.52C387.932 646.854 360.573 690.993 349.629 713.61L345.981 722ZM566.929 676.766L569.848 678.225C551.973 707.773 528.262 723.824 501.997 723.824C473.543 723.824 456.763 705.22 456.763 672.754C456.763 620.224 501.267 570.977 550.514 570.977C572.766 570.977 586.263 581.192 586.263 597.607C586.263 629.708 534.828 655.244 479.745 651.231C478.65 657.068 478.286 663.269 478.286 669.106C478.286 697.924 491.418 714.339 514.035 714.339C533.734 714.339 551.608 701.937 566.929 676.766ZM545.042 573.896C516.953 573.896 488.5 609.28 480.474 648.313C525.708 651.231 566.2 626.79 566.2 595.783C566.2 581.921 558.174 573.896 545.042 573.896ZM696.592 676.766L699.51 678.225C681.635 707.773 657.924 723.824 631.295 723.824C603.206 723.824 586.426 705.22 586.426 674.213C586.426 620.224 630.93 570.977 679.082 570.977C696.592 570.977 711.183 577.544 718.479 588.852L704.982 620.954H702.064C703.523 589.217 694.403 573.896 675.434 573.896C641.873 573.896 607.948 622.048 607.948 670.2C607.948 697.924 621.08 714.339 643.697 714.339C663.761 714.339 681.271 701.572 696.592 676.766ZM792.303 503.856C813.461 503.856 802.882 536.323 781.36 536.323C761.296 536.323 770.416 503.856 792.303 503.856ZM782.089 576.084L761.296 624.237C743.421 665.823 734.302 686.98 734.302 703.396C734.302 713.245 737.585 718.717 743.786 718.717C747.799 718.717 752.541 716.163 756.919 711.421L759.107 713.61C753.271 719.811 745.245 723.459 736.855 723.459C723.358 723.459 714.603 713.61 714.603 697.924C714.603 687.71 718.251 674.577 724.817 658.892L748.893 602.714C756.554 584.839 753.636 579.003 736.855 579.003V576.084H782.089ZM826.904 624.237C797.721 690.628 763.066 813.197 677.341 813.197C648.157 813.197 632.836 798.97 635.025 776.354H659.101C656.548 800.43 662.384 810.279 679.165 810.279C732.788 810.279 769.632 707.044 790.425 658.892L824.715 579.003H788.236V576.084H825.81L850.25 519.177C870.679 471.025 900.956 443.666 933.057 443.666C954.58 443.666 967.348 455.704 965.524 474.308H943.636C944.731 463.365 946.919 446.584 931.234 446.584C903.145 446.584 880.893 500.208 872.138 519.177C861.924 542.159 853.898 560.763 847.332 576.084H919.56L898.767 624.237C880.893 665.823 871.773 686.98 871.773 703.396C871.773 713.245 875.056 718.717 881.257 718.717C885.27 718.717 890.012 716.163 894.39 711.421L896.579 713.61C890.742 719.811 882.717 723.459 874.327 723.459C860.829 723.459 852.074 713.61 852.074 697.924C852.074 687.71 855.722 674.577 862.288 658.892L886.365 602.714C894.025 584.839 891.107 579.003 874.327 579.003L845.873 579.368C837.483 599.066 831.646 613.293 826.904 624.237ZM929.774 503.856C950.932 503.856 940.353 536.323 918.831 536.323C898.767 536.323 907.887 503.856 929.774 503.856ZM1026.47 676.766L1029.39 678.225C1011.51 707.773 987.801 723.824 961.172 723.824C933.083 723.824 916.303 705.22 916.303 674.213C916.303 620.224 960.807 570.977 1008.96 570.977C1026.47 570.977 1041.06 577.544 1048.36 588.852L1034.86 620.954H1031.94C1033.4 589.217 1024.28 573.896 1005.31 573.896C971.751 573.896 937.825 622.048 937.825 670.2C937.825 697.924 950.958 714.339 973.575 714.339C993.638 714.339 1011.15 701.572 1026.47 676.766ZM1171.83 711.421L1174.02 713.61C1168.19 719.811 1160.16 723.459 1151.77 723.459C1138.27 723.459 1129.52 713.61 1129.52 697.924C1129.52 690.263 1131.34 681.508 1134.99 670.93C1114.56 705.585 1093.4 723.459 1071.88 723.459C1042.7 723.459 1033.58 689.534 1048.9 646.489C1063.86 604.538 1095.96 570.977 1133.9 570.977C1153.6 570.977 1168.19 580.097 1172.56 595.054L1194.09 576.084H1197L1176.21 624.237C1158.34 665.823 1149.22 686.98 1149.22 703.396C1149.22 713.245 1152.5 718.717 1158.7 718.717C1162.71 718.717 1167.46 716.163 1171.83 711.421ZM1163.81 602.714C1164.54 584.475 1155.05 574.99 1140.83 574.99C1113.1 574.99 1084.65 610.01 1071.15 649.407C1057.66 687.71 1061.67 718.717 1079.54 718.717C1097.05 718.717 1124.41 688.075 1143.75 649.407L1163.81 602.714Z" fill="white"/>
<path d="M825.623 811.606H802.362L764.962 899.176H791.415C831.78 899.176 857.549 881.388 861.882 850.83C865.303 827.341 853.9 811.606 825.623 811.606ZM845.691 740.683H832.464L803.046 809.781H829.955C853.444 809.781 874.653 793.362 877.845 770.557C880.582 751.401 868.951 740.683 845.691 740.683ZM755.84 888.685L812.396 755.506C817.185 744.332 815.36 740.683 804.87 740.683V738.859H845.463C878.529 738.859 895.405 751.401 891.3 772.838C887.423 792.678 868.495 806.36 843.182 810.465C865.075 810.465 880.582 828.709 877.617 851.742C874.425 875.459 851.848 901 790.959 901H739.193V899.176C748.999 899.176 752.191 897.123 755.84 888.685ZM958.237 872.722L960.062 873.634C948.887 892.106 934.064 902.14 917.645 902.14C899.857 902.14 889.367 890.51 889.367 870.214C889.367 837.375 917.189 806.589 947.975 806.589C961.886 806.589 970.324 812.974 970.324 823.236C970.324 843.304 938.169 859.267 903.734 856.759C903.05 860.408 902.822 864.284 902.822 867.933C902.822 885.949 911.031 896.211 925.17 896.211C937.485 896.211 948.659 888.457 958.237 872.722ZM944.554 808.413C926.995 808.413 909.207 830.533 904.19 854.934C932.468 856.759 957.781 841.48 957.781 822.096C957.781 813.43 952.764 808.413 944.554 808.413ZM1049.33 894.387L1050.7 895.755C1047.05 899.632 1042.03 901.912 1036.79 901.912C1028.35 901.912 1022.88 895.755 1022.88 885.949C1022.88 881.16 1024.02 875.687 1026.3 869.073C1013.53 890.738 1000.3 901.912 986.845 901.912C968.601 901.912 962.9 880.704 972.478 853.794C981.828 827.569 1001.9 806.589 1025.61 806.589C1037.93 806.589 1047.05 812.29 1049.79 821.64L1063.24 809.781H1065.06L1052.07 839.883C1040.89 865.881 1035.19 879.107 1035.19 889.37C1035.19 895.527 1037.24 898.948 1041.12 898.948C1043.63 898.948 1046.59 897.351 1049.33 894.387ZM1044.31 826.429C1044.77 815.026 1038.84 809.097 1029.95 809.097C1012.61 809.097 994.826 830.99 986.389 855.619C977.951 879.564 980.459 898.948 991.634 898.948C1002.58 898.948 1019.68 879.792 1031.77 855.619L1044.31 826.429ZM1153.81 809.781L1140.81 839.883C1129.63 865.881 1123.93 879.107 1123.93 889.37C1123.93 895.527 1125.98 898.948 1129.86 898.948C1132.37 898.948 1135.33 897.351 1138.07 894.387L1139.44 895.755C1135.79 899.632 1130.77 901.912 1125.53 901.912C1117.09 901.912 1111.62 895.755 1111.62 885.949C1111.62 880.476 1113.9 872.266 1117.32 863.6C1109.34 877.055 1094.29 901.912 1076.95 901.912C1067.83 901.912 1062.36 895.299 1063.04 884.581C1064.18 868.389 1079.92 836.919 1083.11 822.096C1084.71 814.57 1083.34 810.237 1079.46 810.237C1077.41 810.237 1074.9 811.377 1071.71 813.886L1070.57 812.518C1074.22 808.869 1079.46 806.589 1084.25 806.589C1092.92 806.589 1097.48 814.114 1095.2 825.744C1092.23 840.111 1076.73 870.898 1075.13 887.089C1074.45 894.615 1076.73 898.948 1081.06 898.948C1100.44 898.948 1127.58 841.024 1134.19 826.429C1138.98 815.254 1137.16 811.606 1126.67 811.606V809.781H1153.81ZM1180.18 839.883C1169.01 865.881 1163.31 879.107 1163.31 888.914C1163.31 895.527 1165.82 898.948 1170.38 898.948C1173.57 898.948 1176.99 897.351 1179.73 894.387L1181.1 895.755C1177.45 899.632 1171.97 901.912 1166.5 901.912C1157.15 901.912 1150.99 895.527 1150.99 885.493C1150.99 879.564 1153.27 871.354 1157.38 861.548L1178.82 811.606H1156.01V809.781H1179.5L1195.46 772.609H1209.15C1202.76 787.661 1197.52 799.975 1193.18 809.781H1219.86V811.606L1192.27 811.834C1187.03 824.148 1183.15 833.042 1180.18 839.883ZM1217.82 898.948C1223.52 898.948 1231.5 893.246 1239.03 883.896C1246.1 875.231 1253.85 861.776 1260.92 848.093C1265.48 838.287 1270.04 829.849 1271.41 826.429C1276.2 815.254 1274.37 811.606 1263.88 811.606V809.781H1291.02C1286.01 821.412 1283.04 828.253 1281.9 830.761C1259.78 881.388 1238.12 958.012 1184.52 958.012C1166.28 958.012 1156.7 949.118 1158.07 934.979H1173.12C1171.53 950.03 1175.17 956.187 1185.66 956.187C1217.36 956.187 1239.94 898.263 1253.17 866.565C1245.18 880.02 1231.05 901.912 1213.71 901.912C1204.14 901.912 1198.66 895.299 1199.35 884.581C1200.49 868.389 1216.22 836.919 1219.42 822.096C1221.01 814.57 1219.64 810.237 1215.77 810.237C1213.71 810.237 1211.21 811.377 1208.01 813.886L1206.87 812.518C1210.52 808.869 1215.77 806.589 1220.56 806.589C1229.22 806.589 1233.78 814.114 1231.5 825.744C1228.54 840.111 1213.03 870.898 1211.43 887.089C1210.75 894.615 1213.03 898.948 1217.82 898.948Z" fill="white"/>
</svg>
