<svg width="1191" height="515" viewBox="0 0 1191 515" fill="none" xmlns="http://www.w3.org/2000/svg">
<path d="M190.42 21.8875H154.306L94.4803 161.966H135.701C200.269 161.966 241.49 133.513 248.421 84.6311C253.893 47.0579 235.654 21.8875 190.42 21.8875ZM273.592 86.0903C268.849 124.028 232.37 164.885 134.972 164.885H93.3859L56.5423 251.704C48.8817 269.579 51.8 275.416 68.5803 275.416V278.334H5.10704V275.416C20.793 275.416 25.9 272.133 31.7366 258.635L122.204 45.5988C129.865 27.7241 126.946 21.8875 110.166 21.8875V18.9692H197.351C240.031 18.9692 280.887 31.0072 273.592 86.0903ZM244.981 278.334H224.918L275.624 159.048C283.284 141.173 280.366 135.337 263.586 135.337V132.418H308.819L261.032 241.126C275.988 213.766 296.417 182.395 311.008 163.426C328.518 140.809 342.015 131.689 358.431 131.689C363.902 131.689 368.645 132.783 372.293 134.972L356.607 171.816H353.688C355.877 159.413 351.135 151.023 341.286 151.023C330.342 151.023 317.209 161.237 301.159 183.854C286.932 203.187 259.573 247.327 248.629 269.944L244.981 278.334ZM465.929 233.1L468.848 234.559C450.973 264.107 427.262 280.158 400.997 280.158C372.543 280.158 355.763 261.554 355.763 229.088C355.763 176.558 400.267 127.311 449.514 127.311C471.766 127.311 485.263 137.526 485.263 153.941C485.263 186.042 433.828 211.578 378.745 207.565C377.65 213.402 377.286 219.603 377.286 225.44C377.286 254.258 390.418 270.673 413.035 270.673C432.734 270.673 450.608 258.271 465.929 233.1ZM444.042 130.23C415.953 130.23 387.5 165.614 379.474 204.647C424.708 207.565 465.2 183.124 465.2 152.117C465.2 138.255 457.174 130.23 444.042 130.23ZM595.592 233.1L598.51 234.559C580.635 264.107 556.924 280.158 530.295 280.158C502.206 280.158 485.426 261.554 485.426 230.547C485.426 176.558 529.93 127.311 578.082 127.311C595.592 127.311 610.183 133.878 617.479 145.186L603.982 177.287H601.064C602.523 145.551 593.403 130.23 574.434 130.23C540.873 130.23 506.948 178.382 506.948 226.534C506.948 254.258 520.08 270.673 542.697 270.673C562.761 270.673 580.271 257.906 595.592 233.1ZM691.303 60.1903C712.461 60.1903 701.882 92.6565 680.36 92.6565C660.296 92.6565 669.416 60.1903 691.303 60.1903ZM681.089 132.418L660.296 180.571C642.421 222.157 633.302 243.314 633.302 259.73C633.302 269.579 636.585 275.051 642.786 275.051C646.799 275.051 651.541 272.497 655.919 267.755L658.107 269.944C652.271 276.145 644.245 279.793 635.855 279.793C622.358 279.793 613.603 269.944 613.603 254.258C613.603 244.044 617.251 230.911 623.817 215.226L647.893 159.048C655.554 141.173 652.636 135.337 635.855 135.337V132.418H681.089ZM725.904 180.571C696.721 246.962 662.066 369.531 576.341 369.531C547.157 369.531 531.836 355.304 534.025 332.688H558.101C555.548 356.764 561.384 366.613 578.165 366.613C631.788 366.613 668.632 263.378 689.425 215.226L723.715 135.337H687.236V132.418H724.81L749.25 75.5114C769.679 27.3593 799.956 0.000158362 832.057 0.000158362C853.58 0.000158362 866.348 12.0382 864.524 30.6424H842.636C843.731 19.6987 845.919 2.91845 830.234 2.91845C802.145 2.91845 779.893 56.5424 771.138 75.5114C760.924 98.4931 752.898 117.097 746.332 132.418H818.56L797.767 180.571C779.893 222.157 770.773 243.314 770.773 259.73C770.773 269.579 774.056 275.051 780.257 275.051C784.27 275.051 789.012 272.497 793.39 267.755L795.579 269.944C789.742 276.145 781.717 279.793 773.327 279.793C759.829 279.793 751.074 269.944 751.074 254.258C751.074 244.044 754.722 230.911 761.288 215.226L785.365 159.048C793.025 141.173 790.107 135.337 773.327 135.337L744.873 135.702C736.483 155.4 730.646 169.627 725.904 180.571ZM828.774 60.1903C849.932 60.1903 839.353 92.6565 817.831 92.6565C797.767 92.6565 806.887 60.1903 828.774 60.1903ZM925.469 233.1L928.387 234.559C910.513 264.107 886.801 280.158 860.172 280.158C832.083 280.158 815.303 261.554 815.303 230.547C815.303 176.558 859.807 127.311 907.959 127.311C925.469 127.311 940.061 133.878 947.356 145.186L933.859 177.287H930.941C932.4 145.551 923.28 130.23 904.311 130.23C870.751 130.23 836.825 178.382 836.825 226.534C836.825 254.258 849.958 270.673 872.575 270.673C892.638 270.673 910.148 257.906 925.469 233.1ZM1070.83 267.755L1073.02 269.944C1067.19 276.145 1059.16 279.793 1050.77 279.793C1037.27 279.793 1028.52 269.944 1028.52 254.258C1028.52 246.597 1030.34 237.842 1033.99 227.264C1013.56 261.918 992.405 279.793 970.882 279.793C941.699 279.793 932.58 245.868 947.901 202.823C962.857 160.872 994.958 127.311 1032.9 127.311C1052.6 127.311 1067.19 136.431 1071.56 151.387L1093.09 132.418H1096L1075.21 180.571C1057.34 222.157 1048.22 243.314 1048.22 259.73C1048.22 269.579 1051.5 275.051 1057.7 275.051C1061.71 275.051 1066.46 272.497 1070.83 267.755ZM1062.81 159.048C1063.54 140.809 1054.05 131.324 1039.83 131.324C1012.1 131.324 983.65 166.344 970.153 205.741C956.656 244.044 960.668 275.051 978.543 275.051C996.053 275.051 1023.41 244.409 1042.75 205.741L1062.81 159.048Z" fill="#1E150F"/>
<path d="M724.623 367.94H701.362L663.962 455.51H690.415C730.78 455.51 756.549 437.722 760.882 407.164C764.303 383.675 752.9 367.94 724.623 367.94ZM744.691 297.017H731.464L702.046 366.115H728.955C752.444 366.115 773.653 349.696 776.845 326.891C779.582 307.735 767.951 297.017 744.691 297.017ZM654.84 445.019L711.396 311.84C716.185 300.666 714.36 297.017 703.87 297.017V295.193H744.463C777.529 295.193 794.405 307.735 790.3 329.172C786.423 349.012 767.495 362.694 742.182 366.799C764.075 366.799 779.582 385.043 776.617 408.076C773.425 431.793 750.848 457.334 689.959 457.334H638.193V455.51C647.999 455.51 651.191 453.457 654.84 445.019ZM857.237 429.056L859.062 429.968C847.887 448.44 833.064 458.474 816.645 458.474C798.857 458.474 788.367 446.844 788.367 426.548C788.367 393.709 816.189 362.922 846.975 362.922C860.886 362.922 869.324 369.308 869.324 379.57C869.324 399.638 837.169 415.601 802.734 413.093C802.05 416.742 801.822 420.618 801.822 424.267C801.822 442.283 810.031 452.545 824.17 452.545C836.485 452.545 847.659 444.791 857.237 429.056ZM843.554 364.747C825.995 364.747 808.207 386.867 803.19 411.268C831.468 413.093 856.781 397.814 856.781 378.43C856.781 369.764 851.764 364.747 843.554 364.747ZM948.33 450.721L949.698 452.089C946.049 455.966 941.032 458.246 935.787 458.246C927.349 458.246 921.876 452.089 921.876 442.283C921.876 437.494 923.016 432.021 925.297 425.407C912.526 447.072 899.299 458.246 885.845 458.246C867.601 458.246 861.9 437.038 871.478 410.128C880.828 383.903 900.896 362.922 924.613 362.922C936.927 362.922 946.049 368.624 948.786 377.974L962.24 366.115H964.065L951.066 396.217C939.892 422.215 934.191 435.441 934.191 445.704C934.191 451.861 936.243 455.282 940.12 455.282C942.628 455.282 945.593 453.685 948.33 450.721ZM943.313 382.763C943.769 371.36 937.839 365.431 928.946 365.431C911.614 365.431 893.826 387.324 885.389 411.953C876.951 435.898 879.459 455.282 890.634 455.282C901.58 455.282 918.683 436.126 930.77 411.953L943.313 382.763ZM1052.81 366.115L1039.81 396.217C1028.63 422.215 1022.93 435.441 1022.93 445.704C1022.93 451.861 1024.98 455.282 1028.86 455.282C1031.37 455.282 1034.33 453.685 1037.07 450.721L1038.44 452.089C1034.79 455.966 1029.77 458.246 1024.53 458.246C1016.09 458.246 1010.62 452.089 1010.62 442.283C1010.62 436.81 1012.9 428.6 1016.32 419.934C1008.34 433.389 993.285 458.246 975.954 458.246C966.832 458.246 961.359 451.633 962.043 440.915C963.183 424.723 978.918 393.253 982.111 378.43C983.707 370.904 982.339 366.571 978.462 366.571C976.41 366.571 973.901 367.711 970.708 370.22L969.568 368.852C973.217 365.203 978.462 362.922 983.251 362.922C991.917 362.922 996.478 370.448 994.197 382.078C991.233 396.445 975.725 427.232 974.129 443.423C973.445 450.949 975.725 455.282 980.058 455.282C999.442 455.282 1026.58 397.358 1033.19 382.763C1037.98 371.588 1036.16 367.94 1025.67 367.94V366.115H1052.81ZM1079.18 396.217C1068.01 422.215 1062.31 435.441 1062.31 445.247C1062.31 451.861 1064.82 455.282 1069.38 455.282C1072.57 455.282 1075.99 453.685 1078.73 450.721L1080.1 452.089C1076.45 455.966 1070.97 458.246 1065.5 458.246C1056.15 458.246 1049.99 451.861 1049.99 441.827C1049.99 435.898 1052.27 427.688 1056.38 417.882L1077.82 367.94H1055.01V366.115H1078.5L1094.46 328.943H1108.15C1101.76 343.995 1096.52 356.309 1092.18 366.115H1118.86V367.94L1091.27 368.168C1086.03 380.482 1082.15 389.376 1079.18 396.217ZM1116.82 455.282C1122.52 455.282 1130.5 449.58 1138.03 440.23C1145.1 431.565 1152.85 418.11 1159.92 404.427C1164.48 394.621 1169.04 386.183 1170.41 382.763C1175.2 371.588 1173.37 367.94 1162.88 367.94V366.115H1190.02C1185.01 377.746 1182.04 384.587 1180.9 387.095C1158.78 437.722 1137.12 514.346 1083.52 514.346C1065.28 514.346 1055.7 505.452 1057.07 491.313H1072.12C1070.53 506.364 1074.17 512.521 1084.66 512.521C1116.36 512.521 1138.94 454.597 1152.17 422.899C1144.18 436.354 1130.05 458.246 1112.71 458.246C1103.14 458.246 1097.66 451.633 1098.35 440.915C1099.49 424.723 1115.22 393.253 1118.42 378.43C1120.01 370.904 1118.64 366.571 1114.77 366.571C1112.71 366.571 1110.21 367.711 1107.01 370.22L1105.87 368.852C1109.52 365.203 1114.77 362.922 1119.56 362.922C1128.22 362.922 1132.78 370.448 1130.5 382.078C1127.54 396.445 1112.03 427.232 1110.43 443.423C1109.75 450.949 1112.03 455.282 1116.82 455.282Z" fill="#1E150F"/>
</svg>
